<svg width="296" height="58" viewBox="0 0 296 58" fill="none" xmlns="http://www.w3.org/2000/svg">
<rect y="6" width="296" height="12" rx="6" fill="#90A3BF"/>
<rect y="6" width="220" height="12" rx="6" fill="#3563E9"/>
<circle cx="220" cy="12" r="10" fill="#3563E9" stroke="white" stroke-width="4"/>
<path d="M1.54 54V39.1H3.74L9.34 46.86H8.24L13.74 39.1H15.94V54H13.6V41.88L14.48 42.12L8.86 49.8H8.62L3.12 42.12L3.9 41.88V54H1.54ZM21.6405 54.24C20.9071 54.24 20.2605 54.1133 19.7005 53.86C19.1538 53.5933 18.7271 53.2333 18.4205 52.78C18.1138 52.3133 17.9605 51.7667 17.9605 51.14C17.9605 50.5533 18.0871 50.0267 18.3405 49.56C18.6071 49.0933 19.0138 48.7 19.5605 48.38C20.1071 48.06 20.7938 47.8333 21.6205 47.7L25.3805 47.08V48.86L22.0605 49.44C21.4605 49.5467 21.0205 49.74 20.7405 50.02C20.4605 50.2867 20.3205 50.6333 20.3205 51.06C20.3205 51.4733 20.4738 51.8133 20.7805 52.08C21.1005 52.3333 21.5071 52.46 22.0005 52.46C22.6138 52.46 23.1471 52.3267 23.6005 52.06C24.0671 51.7933 24.4271 51.44 24.6805 51C24.9338 50.5467 25.0605 50.0467 25.0605 49.5V46.72C25.0605 46.1867 24.8605 45.7533 24.4605 45.42C24.0738 45.0733 23.5538 44.9 22.9005 44.9C22.3005 44.9 21.7738 45.06 21.3205 45.38C20.8805 45.6867 20.5538 46.0867 20.3405 46.58L18.4605 45.64C18.6605 45.1067 18.9871 44.64 19.4405 44.24C19.8938 43.8267 20.4205 43.5067 21.0205 43.28C21.6338 43.0533 22.2805 42.94 22.9605 42.94C23.8138 42.94 24.5671 43.1 25.2205 43.42C25.8871 43.74 26.4005 44.1867 26.7605 44.76C27.1338 45.32 27.3205 45.9733 27.3205 46.72V54H25.1605V52.04L25.6205 52.1C25.3671 52.54 25.0405 52.92 24.6405 53.24C24.2538 53.56 23.8071 53.8067 23.3005 53.98C22.8071 54.1533 22.2538 54.24 21.6405 54.24ZM28.483 54L32.263 48.58L28.483 43.18H31.143L34.243 47.7H32.963L36.063 43.18H38.723L34.923 48.58L38.703 54H36.043L32.983 49.46H34.223L31.143 54H28.483ZM40.8661 54V51.4H43.1661V54H40.8661ZM54.9358 54.24C54.0024 54.24 53.1358 54.0667 52.3358 53.72C51.5358 53.36 50.8558 52.8733 50.2958 52.26C49.7358 51.6467 49.3224 50.94 49.0558 50.14L51.0558 49.3C51.4158 50.22 51.9424 50.9267 52.6358 51.42C53.3291 51.9133 54.1291 52.16 55.0358 52.16C55.5691 52.16 56.0358 52.08 56.4358 51.92C56.8358 51.7467 57.1424 51.5067 57.3558 51.2C57.5824 50.8933 57.6958 50.54 57.6958 50.14C57.6958 49.5933 57.5424 49.16 57.2358 48.84C56.9291 48.52 56.4758 48.2667 55.8758 48.08L53.0758 47.2C51.9558 46.8533 51.1024 46.3267 50.5158 45.62C49.9291 44.9 49.6358 44.06 49.6358 43.1C49.6358 42.26 49.8424 41.5267 50.2558 40.9C50.6691 40.26 51.2358 39.76 51.9558 39.4C52.6891 39.04 53.5224 38.86 54.4558 38.86C55.3491 38.86 56.1624 39.02 56.8958 39.34C57.6291 39.6467 58.2558 40.0733 58.7758 40.62C59.3091 41.1667 59.6958 41.8 59.9358 42.52L57.9758 43.38C57.6824 42.5933 57.2224 41.9867 56.5958 41.56C55.9824 41.1333 55.2691 40.92 54.4558 40.92C53.9624 40.92 53.5291 41.0067 53.1558 41.18C52.7824 41.34 52.4891 41.58 52.2758 41.9C52.0758 42.2067 51.9758 42.5667 51.9758 42.98C51.9758 43.46 52.1291 43.8867 52.4358 44.26C52.7424 44.6333 53.2091 44.9133 53.8358 45.1L56.4358 45.92C57.6224 46.28 58.5158 46.8 59.1158 47.48C59.7158 48.1467 60.0158 48.98 60.0158 49.98C60.0158 50.8067 59.7958 51.54 59.3558 52.18C58.9291 52.82 58.3358 53.3267 57.5758 53.7C56.8158 54.06 55.9358 54.24 54.9358 54.24ZM54.0158 56V37.1H55.6158V56H54.0158ZM64.245 54V41.1H61.385V39.1H66.585V54H64.245ZM75.337 54.24C74.1504 54.24 73.1104 53.92 72.217 53.28C71.3237 52.6267 70.6237 51.7267 70.117 50.58C69.6237 49.42 69.377 48.0733 69.377 46.54C69.377 44.9933 69.6237 43.6467 70.117 42.5C70.6237 41.3533 71.317 40.46 72.197 39.82C73.0904 39.18 74.1304 38.86 75.317 38.86C76.5037 38.86 77.537 39.18 78.417 39.82C79.3104 40.46 80.0037 41.36 80.497 42.52C81.0037 43.6667 81.257 45.0067 81.257 46.54C81.257 48.0733 81.0104 49.42 80.517 50.58C80.0237 51.7267 79.3304 52.6267 78.437 53.28C77.557 53.92 76.5237 54.24 75.337 54.24ZM75.337 52.08C76.0704 52.08 76.7037 51.8533 77.237 51.4C77.7704 50.9467 78.1837 50.3067 78.477 49.48C78.7704 48.6533 78.917 47.6733 78.917 46.54C78.917 45.4067 78.7704 44.4267 78.477 43.6C78.1837 42.7733 77.7704 42.1333 77.237 41.68C76.7037 41.2267 76.0637 41 75.317 41C74.5837 41 73.9504 41.2267 73.417 41.68C72.8837 42.1333 72.4704 42.7733 72.177 43.6C71.8837 44.4267 71.737 45.4067 71.737 46.54C71.737 47.66 71.8837 48.64 72.177 49.48C72.4704 50.3067 72.8837 50.9467 73.417 51.4C73.9637 51.8533 74.6037 52.08 75.337 52.08ZM89.2534 54.24C88.0668 54.24 87.0268 53.92 86.1334 53.28C85.2401 52.6267 84.5401 51.7267 84.0334 50.58C83.5401 49.42 83.2934 48.0733 83.2934 46.54C83.2934 44.9933 83.5401 43.6467 84.0334 42.5C84.5401 41.3533 85.2334 40.46 86.1134 39.82C87.0068 39.18 88.0468 38.86 89.2334 38.86C90.4201 38.86 91.4534 39.18 92.3334 39.82C93.2268 40.46 93.9201 41.36 94.4134 42.52C94.9201 43.6667 95.1734 45.0067 95.1734 46.54C95.1734 48.0733 94.9268 49.42 94.4334 50.58C93.9401 51.7267 93.2468 52.6267 92.3534 53.28C91.4734 53.92 90.4401 54.24 89.2534 54.24ZM89.2534 52.08C89.9868 52.08 90.6201 51.8533 91.1534 51.4C91.6868 50.9467 92.1001 50.3067 92.3934 49.48C92.6868 48.6533 92.8334 47.6733 92.8334 46.54C92.8334 45.4067 92.6868 44.4267 92.3934 43.6C92.1001 42.7733 91.6868 42.1333 91.1534 41.68C90.6201 41.2267 89.9801 41 89.2334 41C88.5001 41 87.8668 41.2267 87.3334 41.68C86.8001 42.1333 86.3868 42.7733 86.0934 43.6C85.8001 44.4267 85.6534 45.4067 85.6534 46.54C85.6534 47.66 85.8001 48.64 86.0934 49.48C86.3868 50.3067 86.8001 50.9467 87.3334 51.4C87.8801 51.8533 88.5201 52.08 89.2534 52.08ZM98.3098 54V51.4H100.61V54H98.3098ZM109.703 54.24C108.517 54.24 107.477 53.92 106.583 53.28C105.69 52.6267 104.99 51.7267 104.483 50.58C103.99 49.42 103.743 48.0733 103.743 46.54C103.743 44.9933 103.99 43.6467 104.483 42.5C104.99 41.3533 105.683 40.46 106.563 39.82C107.457 39.18 108.497 38.86 109.683 38.86C110.87 38.86 111.903 39.18 112.783 39.82C113.677 40.46 114.37 41.36 114.863 42.52C115.37 43.6667 115.623 45.0067 115.623 46.54C115.623 48.0733 115.377 49.42 114.883 50.58C114.39 51.7267 113.697 52.6267 112.803 53.28C111.923 53.92 110.89 54.24 109.703 54.24ZM109.703 52.08C110.437 52.08 111.07 51.8533 111.603 51.4C112.137 50.9467 112.55 50.3067 112.843 49.48C113.137 48.6533 113.283 47.6733 113.283 46.54C113.283 45.4067 113.137 44.4267 112.843 43.6C112.55 42.7733 112.137 42.1333 111.603 41.68C111.07 41.2267 110.43 41 109.683 41C108.95 41 108.317 41.2267 107.783 41.68C107.25 42.1333 106.837 42.7733 106.543 43.6C106.25 44.4267 106.103 45.4067 106.103 46.54C106.103 47.66 106.25 48.64 106.543 49.48C106.837 50.3067 107.25 50.9467 107.783 51.4C108.33 51.8533 108.97 52.08 109.703 52.08ZM123.62 54.24C122.433 54.24 121.393 53.92 120.5 53.28C119.607 52.6267 118.907 51.7267 118.4 50.58C117.907 49.42 117.66 48.0733 117.66 46.54C117.66 44.9933 117.907 43.6467 118.4 42.5C118.907 41.3533 119.6 40.46 120.48 39.82C121.373 39.18 122.413 38.86 123.6 38.86C124.787 38.86 125.82 39.18 126.7 39.82C127.593 40.46 128.287 41.36 128.78 42.52C129.287 43.6667 129.54 45.0067 129.54 46.54C129.54 48.0733 129.293 49.42 128.8 50.58C128.307 51.7267 127.613 52.6267 126.72 53.28C125.84 53.92 124.807 54.24 123.62 54.24ZM123.62 52.08C124.353 52.08 124.987 51.8533 125.52 51.4C126.053 50.9467 126.467 50.3067 126.76 49.48C127.053 48.6533 127.2 47.6733 127.2 46.54C127.2 45.4067 127.053 44.4267 126.76 43.6C126.467 42.7733 126.053 42.1333 125.52 41.68C124.987 41.2267 124.347 41 123.6 41C122.867 41 122.233 41.2267 121.7 41.68C121.167 42.1333 120.753 42.7733 120.46 43.6C120.167 44.4267 120.02 45.4067 120.02 46.54C120.02 47.66 120.167 48.64 120.46 49.48C120.753 50.3067 121.167 50.9467 121.7 51.4C122.247 51.8533 122.887 52.08 123.62 52.08Z" fill="#596780"/>
</svg>
